<?xml version="1.0" encoding="UTF-8" standalone="no"?>
<!DOCTYPE svg PUBLIC "-//W3C//DTD SVG 20000802//EN" "http://www.w3.org/TR/2000/CR-SVG-20000802/DTD/svg-20000802.dtd">
<svg height="400" width="600" xmlns="http://www.w3.org/2000/svg">
  <rect fill="#091ea5" height="109" width="138" x="416" y="265"/>
  <rect fill="#222a82" height="38" width="166" x="423" y="194"/>
  <rect fill="#c5a413" height="25" width="36" x="541" y="311"/>
  <rect fill="#dc3960" height="37" width="166" x="165" y="110"/>
  <rect fill="#c65ee9" height="216" width="50" x="448" y="103"/>
  <rect fill="#c8d033" height="13" width="447" x="73" y="367"/>
  <rect fill="#226538" height="169" width="115" x="168" y="151"/>
  <rect fill="#de8e70" height="130" width="158" x="406" y="128"/>
  <rect fill="#9dd542" height="80" width="21" x="568" y="255"/>
  <rect fill="#56ce5b" height="13" width="134" x="170" y="198"/>
  <rect fill="#463e55" height="37" width="200" x="205" y="261"/>
  <rect fill="#7babdc" height="288" width="130" x="412" y="34"/>
  <rect fill="#b7e1be" height="174" width="182" x="395" y="62"/>
  <rect fill="#6e95b8" height="37" width="2" x="278" y="286"/>
  <rect fill="#3be50e" height="47" width="211" x="366" y="225"/>
  <rect fill="#3be53b" height="293" width="47" x="372" y="93"/>
  <rect fill="#0dbc92" height="205" width="82" x="387" y="111"/>
  <rect fill="#4e7f85" height="161" width="9" x="583" y="51"/>
  <rect fill="#d2e336" height="242" width="286" x="150" y="124"/>
  <rect fill="#4dfa66" height="114" width="279" x="251" y="230"/>
  <rect fill="#782af1" height="200" width="167" x="59" y="176"/>
  <rect fill="#12ded3" height="56" width="167" x="432" y="61"/>
  <rect fill="#289301" height="80" width="18" x="558" y="223"/>
  <rect fill="#31da2f" height="245" width="27" x="530" y="116"/>
</svg>
