<svg  xmlns="http://www.w3.org/2000/svg" viewBox="0 0 32 32"><path d="M29.1 12.1l-3.2-3.2c-.6-.6-1.3-.9-2.1-.9H22V5c0-1.7-1.3-3-3-3h-3.8C14.6.8 13.4 0 12 0S9.4.8 8.8 2H5C3.3 2 2 3.3 2 5v18c0 1.7 1.3 3 3 3h5v3c0 1.7 1.3 3 3 3h14c1.7 0 3-1.3 3-3V14.2c0-.8-.3-1.5-.9-2.1zm-5.2-1l3 3c.1.1.1.2.1.3v.6h-4v-4h.6c.1 0 .2 0 .3.1zM12 2.4c.6 0 1.1.5 1.1 1.1s-.5 1.1-1.1 1.1-1.1-.5-1.1-1.1.5-1.1 1.1-1.1zM10 11v12H5.4c-.2 0-.4-.2-.4-.4V5.4c0-.2.2-.4.4-.4h3.5c.6 1.2 1.8 2 3.2 2s2.6-.8 3.2-2h3.5s.2.2.2.4V8h-6c-1.7 0-3 1.3-3 3zm16.6 18H13.4c-.2 0-.4-.2-.4-.4V11.4c0-.2.2-.4.4-.4H20v5.5c0 .8.7 1.5 1.5 1.5H27v10.6c0 .2-.2.4-.4.4z"/></svg>