<svg  xmlns="http://www.w3.org/2000/svg" viewBox="0 0 32 32"><path d="M3.4 10.7C4.1 9 5.1 7.5 6.3 6.3S9 4.1 10.7 3.4s3.5-1.1 5.3-1.1c1.7 0 3.4.3 5.1 1 1.6.7 3.1 1.6 4.4 2.8l2.3-2.3c.4-.4.8-.5 1.2-.3.5.2.7.6.7 1.1v8c0 .3-.1.6-.3.8s-.5.3-.8.3h-8c-.5 0-.9-.2-1.1-.7-.2-.5-.1-.9.3-1.2l2.4-2.5c-.8-.8-1.8-1.4-2.9-1.8-1.1-.4-2.2-.6-3.4-.6-1.2 0-2.4.2-3.5.7s-2.1 1.1-2.9 2-1.5 1.8-2 2.9c-.5 1.1-.7 2.3-.7 3.5 0 1.2.2 2.4.7 3.5.5 1.1 1.1 2.1 2 2.9.8.8 1.8 1.5 2.9 2s2.3.7 3.5.7c1.4 0 2.8-.3 4-.9 1.3-.6 2.3-1.5 3.2-2.6.1-.1.2-.2.4-.2s.3.1.4.2l2.4 2.5c.1.1.1.2.2.4 0 .1 0 .3-.1.4-1.3 1.6-2.9 2.8-4.7 3.7-1.7.7-3.7 1.1-5.7 1.1-1.9 0-3.6-.4-5.3-1.1s-3.1-1.7-4.4-2.9c-1.2-1.2-2.2-2.7-2.9-4.4S2.3 17.9 2.3 16s.3-3.6 1.1-5.3z"/></svg>