<?xml version="1.0" standalone="no"?><!DOCTYPE svg PUBLIC "-//W3C//DTD SVG 1.1//EN" "http://www.w3.org/Graphics/SVG/1.1/DTD/svg11.dtd"><svg class="icon" width="32px" height="32.00px" viewBox="0 0 1024 1024" version="1.1" xmlns="http://www.w3.org/2000/svg"><path fill="#000000" d="M129.828571 485.668571H54.857143L224.402286 54.857143h69.851428l169.618286 430.811428H388.315429l-43.446858-114.249142H173.202286l-43.373715 114.322285z m66.998858-176.493714h124.562285l-61.805714-163.474286-62.756571 163.474286zM943.542857 770.194286c17.042286 19.748571 25.673143 44.251429 25.673143 73.874285 0 43.373714-15.872 76.726857-47.177143 98.450286l-0.219428 0.146286c-26.331429 17.554286-61.878857 26.477714-105.179429 26.477714H653.750857V538.331429h163.986286c40.228571 0 73.069714 9.874286 97.499428 29.988571l0.146286 0.073143c24.356571 20.48 36.571429 48.932571 36.571429 84.114286 0 25.088-6.875429 47.542857-20.48 66.194285l-0.219429 0.365715-0.219428 0.292571a112.566857 112.566857 0 0 1-26.331429 22.674286c15.36 6.582857 28.233143 16.091429 38.765714 28.16zM716.580571 600.502857v116.077714h89.673143c25.673143 0 45.129143-5.339429 58.075429-15.286857 12.214857-9.874286 18.505143-24.429714 18.505143-44.178285 0-19.456-5.924571-33.206857-17.773715-42.349715-12.288-9.435429-31.378286-14.189714-58.221714-14.189714H716.580571z m0 177.737143v128.585143h95.963429c25.819429 0 46.299429-4.900571 62.025143-14.262857 16.530286-10.459429 24.868571-26.697143 24.868571-49.152 0-22.454857-7.314286-38.619429-21.650285-49.005715L877.714286 794.185143c-13.970286-10.605714-35.328-15.945143-65.097143-15.945143H716.580571z m53.174858-436.077714c-25.307429-58.368-58.806857-100.571429-100.352-127.561143-56.173714-36.498286-123.904-54.564571-204.068572-53.979429a36.571429 36.571429 0 1 1-0.512-73.142857c93.915429-0.731429 175.689143 21.138286 244.370286 65.828572 50.541714 32.768 90.843429 81.334857 120.905143 144.969142l15.286857-46.811428a36.571429 36.571429 0 1 1 69.485714 22.528l-45.129143 139.117714a36.571429 36.571429 0 0 1-46.08 23.478857l-139.190857-45.202285a36.571429 36.571429 0 1 1 22.674286-69.485715l62.610286 20.260572zM247.661714 661.942857c28.306286 56.905143 64 97.353143 106.934857 122.148572 58.002286 33.499429 126.537143 47.981714 206.482286 43.154285a36.571429 36.571429 0 0 1 4.388572 73.069715c-93.696 5.632-176.493714-11.922286-247.442286-52.882286-52.224-30.134857-94.939429-76.507429-128.365714-138.532572l-12.726858 47.616a36.571429 36.571429 0 1 1-70.656-18.944l37.814858-141.238857a36.571429 36.571429 0 0 1 44.836571-25.892571l141.312 37.888a36.571429 36.571429 0 0 1-19.017143 70.656l-63.561143-17.042286z"  fill-opacity=".85" /></svg>