<svg  xmlns="http://www.w3.org/2000/svg" viewBox="0 0 32 32"><path d="M29.1 8.1l-5.2-5.2c-.6-.6-1.3-.9-2.1-.9H5C3.3 2 2 3.3 2 5v22c0 1.7 1.3 3 3 3h22c1.7 0 3-1.3 3-3V10.2c0-.8-.3-1.5-.9-2.1zM19 5v5h-8V5h8zm7.6 22H5.4c-.2 0-.4-.2-.4-.4V5.4c0-.2.2-.4.4-.4H8v6.5c0 .8.7 1.5 1.5 1.5h11c.8 0 1.5-.7 1.5-1.5V5.2l4.9 4.9c.1.1.1.2.1.3v16.2c0 .2-.2.4-.4.4zM16 14.5c-3 0-5.5 2.5-5.5 5.5s2.5 5.5 5.5 5.5 5.5-2.5 5.5-5.5-2.5-5.5-5.5-5.5zm0 8c-1.4 0-2.5-1.1-2.5-2.5s1.1-2.5 2.5-2.5 2.5 1.1 2.5 2.5-1.1 2.5-2.5 2.5z"/></svg>