<?xml version="1.0" standalone="no"?><!DOCTYPE svg PUBLIC "-//W3C//DTD SVG 1.1//EN" "http://www.w3.org/Graphics/SVG/1.1/DTD/svg11.dtd"><svg class="icon" width="32px" height="32.00px" viewBox="100 100 824 824" version="1.1" xmlns="http://www.w3.org/2000/svg"><path fill="#000000" d="M471.04 716.8c133.12 0 245.76-107.52 245.76-245.76 0-133.12-107.52-245.76-245.76-245.76-133.12 0-245.76 107.52-245.76 245.76 5.12 138.24 112.64 245.76 245.76 245.76z m281.6-35.84l143.36 143.36c20.48 20.48 20.48 51.2 0 71.68-20.48 20.48-51.2 20.48-71.68 0l-143.36-143.36c-56.32 40.96-128 66.56-204.8 66.56-189.44 0-348.16-153.6-348.16-348.16s153.6-348.16 348.16-348.16 348.16 153.6 348.16 348.16c-5.12 81.92-30.72 148.48-71.68 209.92z"  /></svg>