<svg  xmlns="http://www.w3.org/2000/svg" viewBox="0 0 32 32"><path d="M29.7 16c0 1.9-.4 3.6-1.1 5.3s-1.7 3.1-2.9 4.4c-1.2 1.2-2.7 2.2-4.4 2.9s-3.5 1.1-5.3 1.1c-2 0-4-.4-5.8-1.3-1.8-.9-3.4-2.1-4.7-3.7-.1-.1-.1-.3-.1-.4 0-.1.1-.3.2-.4L8 21.4c.1-.1.3-.2.4-.2.2 0 .3.1.4.2.9 1.1 1.9 2 3.2 2.6 1.3.6 2.6.9 4 .9 1.2 0 2.4-.2 3.5-.7s2.1-1.1 2.9-2c.8-.8 1.5-1.8 2-2.9.5-1.1.7-2.3.7-3.5 0-1.2-.2-2.4-.7-3.5-.5-1.1-1.1-2.1-2-2.9s-1.8-1.5-2.9-2-2.3-.5-3.5-.5c-1.2 0-2.3.2-3.4.6-1.1.4-2 1-2.9 1.8l2.4 2.5c.4.4.5.8.3 1.2-.2.5-.6.7-1.1.7h-8c-.3 0-.6-.1-.8-.3-.2-.2-.3-.5-.3-.8v-8c0-.5.2-.9.7-1.1.5-.2.9-.1 1.2.3l2.3 2.3C7.7 4.9 9.1 4 10.8 3.3s3.3-1 5.1-1c1.9 0 3.6.4 5.3 1.1s3.1 1.7 4.4 2.9 2.2 2.7 2.9 4.4c.9 1.7 1.2 3.4 1.2 5.3z"/></svg>